PathFileType	4	(X/Y/Z)	 D:\Google Drive\Share to the world\OpenSim\ScaleTool\TRC\Walk_Mkrs3.trc
DataRate	CameraRate	NumFrames	NumMarkers	Units	OrigDataRate	OrigDataStartFrame	OrigNumFrames
100	100	11	34	m	100	384	614
Frame#	time	C7			T10			CLAV			STRN			LSHO			LELB			LWRA			LWRB			LFIN			RSHO			RELB			RWRA			RWRB			RFIN			LASI			RASI			LPSI			RPSI			LTHI			LKNE			LTIB			LANK			LHEE			LTOE			RTHI			RKNE			RTIB			RANK			RHEE			RTOE			RPINKY			LPINKY			INRKNE			INLKNE			
		X1	Y1	Z1	X2	Y2	Z2	X3	Y3	Z3	X4	Y4	Z4	X5	Y5	Z5	X6	Y6	Z6	X7	Y7	Z7	X8	Y8	Z8	X9	Y9	Z9	X10	Y10	Z10	X11	Y11	Z11	X12	Y12	Z12	X13	Y13	Z13	X14	Y14	Z14	X15	Y15	Z15	X16	Y16	Z16	X17	Y17	Z17	X18	Y18	Z18	X19	Y19	Z19	X20	Y20	Z20	X21	Y21	Z21	X22	Y22	Z22	X23	Y23	Z23	X24	Y24	Z24	X25	Y25	Z25	X26	Y26	Z26	X27	Y27	Z27	X28	Y28	Z28	X29	Y29	Z29	X30	Y30	Z30	X31	Y31	Z31	X32	Y32	Z32	X33	Y33	Z33	X34	Y34	Z34	

384	3.8300	-1.023520	1.504770	0.139160	-1.070320	1.259720	0.138280	-0.882960	1.399330	0.162290	-0.858630	1.245880	0.163990	-0.933910	1.461760	-0.028950	-0.885150	1.148770	-0.101280	-0.777590	0.918850	-0.048590	-0.823000	0.908300	-0.098890	-0.771140	0.843660	-0.095690	-0.978560	1.474260	0.322610	-1.022180	1.157600	0.419200	-0.951470	0.916200	0.389560	-0.994710	0.918770	0.434240	-0.967090	0.850220	0.434280	-0.885280	0.984680	0.038120	-0.919870	0.981160	0.299750	-1.049120	1.089560	0.099680	-1.059790	1.086810	0.184990	-0.912890	0.679610	0.003270	-0.913210	0.490430	0.036320	-0.947400	0.287900	0.032430	-0.956790	0.082740	0.085970	-1.014520	0.099740	0.112680	-0.820860	0.048830	0.171610	-0.906330	0.683850	0.334800	-0.864690	0.507920	0.325140	-0.996030	0.392110	0.317710	-1.153900	0.231840	0.261210	-1.166540	0.277380	0.210120	-1.067530	0.098620	0.249480	-1.122150	0.121820	0.295130	-0.849280	0.034110	0.078880	-0.836450	0.498530	0.219720	-0.936870	0.487590	0.141430	
385	3.8400	-1.014360	1.505030	0.138290	-1.061360	1.260020	0.137530	-0.873940	1.399500	0.161950	-0.849720	1.246050	0.163380	-0.924410	1.462020	-0.029460	-0.867790	1.150730	-0.102030	-0.751990	0.925130	-0.048470	-0.796990	0.912760	-0.098840	-0.742570	0.850210	-0.095440	-0.970000	1.474590	0.322040	-1.020770	1.158950	0.418560	-0.955570	0.915800	0.390810	-0.999420	0.919570	0.434840	-0.973600	0.850430	0.435630	-0.876880	0.984720	0.037030	-0.910340	0.982010	0.298690	-1.040360	1.089710	0.099140	-1.050810	1.087050	0.184460	-0.907340	0.679310	0.002830	-0.910110	0.490020	0.035760	-0.945930	0.287780	0.032060	-0.956720	0.082710	0.085900	-1.014200	0.099910	0.112570	-0.820870	0.048850	0.171590	-0.891030	0.686220	0.334540	-0.845390	0.511010	0.324480	-0.973460	0.391530	0.317280	-1.126760	0.226680	0.260900	-1.141460	0.272040	0.210340	-1.035630	0.097150	0.247880	-1.090500	0.118130	0.294230	-0.849290	0.034060	0.078820	-0.817750	0.502510	0.218940	-0.933670	0.487490	0.140850	
386	3.8500	-1.005230	1.505160	0.137480	-1.052410	1.260190	0.136830	-0.864950	1.399560	0.161610	-0.840820	1.246110	0.162790	-0.914980	1.462190	-0.029940	-0.850700	1.152790	-0.102730	-0.726750	0.931820	-0.048380	-0.771330	0.917610	-0.098600	-0.714500	0.857220	-0.095180	-0.961390	1.474810	0.321500	-1.019240	1.160380	0.417980	-0.959430	0.915680	0.391920	-1.003810	0.920590	0.435330	-0.979780	0.850910	0.436750	-0.868500	0.984660	0.035960	-0.900800	0.982690	0.297640	-1.031610	1.089730	0.098670	-1.041820	1.087120	0.184010	-0.901790	0.678950	0.002390	-0.906970	0.489590	0.035210	-0.944410	0.287650	0.031710	-0.956630	0.082670	0.085830	-1.013830	0.100060	0.112500	-0.820860	0.048860	0.171550	-0.876000	0.688440	0.334200	-0.826460	0.513950	0.323640	-0.950660	0.390320	0.316850	-1.098880	0.220600	0.260600	-1.115830	0.265680	0.210660	-1.002760	0.095210	0.246180	-1.057860	0.113770	0.293250	-0.849300	0.034000	0.078750	-0.799500	0.506410	0.217960	-0.930360	0.487370	0.140270	
387	3.8600	-0.996120	1.505160	0.136730	-1.043470	1.260210	0.136190	-0.855980	1.399500	0.161270	-0.831930	1.246050	0.162220	-0.905610	1.462270	-0.030360	-0.833910	1.154920	-0.103390	-0.701910	0.938900	-0.048290	-0.746020	0.922790	-0.098140	-0.686980	0.864670	-0.094860	-0.952750	1.474940	0.320990	-1.017560	1.161880	0.417430	-0.963010	0.915790	0.392860	-1.007840	0.921800	0.435690	-0.985590	0.851600	0.437640	-0.860140	0.984490	0.034900	-0.891220	0.983170	0.296620	-1.022880	1.089640	0.098280	-1.032820	1.087040	0.183650	-0.896230	0.678530	0.001970	-0.903760	0.489130	0.034690	-0.942840	0.287510	0.031370	-0.956530	0.082640	0.085770	-1.013420	0.100180	0.112450	-0.820840	0.048870	0.171500	-0.861240	0.690510	0.333780	-0.807960	0.516720	0.322620	-0.927690	0.388530	0.316380	-1.070270	0.213680	0.260310	-1.089620	0.258370	0.211020	-0.968970	0.092930	0.244500	-1.024300	0.108900	0.292260	-0.849310	0.033940	0.078670	-0.781770	0.510180	0.216820	-0.926930	0.487230	0.139710	
388	3.8700	-0.987030	1.505040	0.136030	-1.034530	1.260110	0.135590	-0.847010	1.399340	0.160960	-0.823030	1.245880	0.161680	-0.896280	1.462250	-0.030730	-0.817420	1.157090	-0.104010	-0.677520	0.946320	-0.048190	-0.721090	0.928280	-0.097460	-0.660030	0.872500	-0.094480	-0.944100	1.474970	0.320490	-1.015680	1.163420	0.416930	-0.966270	0.916090	0.393650	-1.011470	0.923160	0.435950	-0.991000	0.852470	0.438290	-0.851800	0.984220	0.033860	-0.881580	0.983450	0.295630	-1.014150	1.089430	0.097990	-1.023790	1.086820	0.183390	-0.890690	0.678070	0.001560	-0.900500	0.488640	0.034190	-0.941220	0.287370	0.031050	-0.956410	0.082610	0.085720	-1.012990	0.100320	0.112420	-0.820800	0.048870	0.171450	-0.846780	0.692410	0.333300	-0.789960	0.519280	0.321480	-0.904620	0.386210	0.315870	-1.040930	0.206060	0.260020	-1.062790	0.250160	0.211380	-0.934330	0.090440	0.242950	-0.989880	0.103700	0.291330	-0.849310	0.033860	0.078580	-0.764620	0.513760	0.215520	-0.923390	0.487080	0.139170	
389	3.8800	-0.977940	1.504790	0.135400	-1.025570	1.259880	0.135070	-0.838040	1.399070	0.160670	-0.814110	1.245590	0.161180	-0.886970	1.462130	-0.031050	-0.801240	1.159300	-0.104600	-0.653620	0.954060	-0.048060	-0.696580	0.934040	-0.096620	-0.633660	0.880670	-0.094020	-0.935470	1.474910	0.320000	-1.013570	1.164980	0.416460	-0.969200	0.916550	0.394280	-1.014670	0.924650	0.436100	-0.995960	0.853480	0.438740	-0.843480	0.983840	0.032820	-0.871870	0.983510	0.294700	-1.005430	1.089100	0.097790	-1.014710	1.086470	0.183230	-0.885150	0.677570	0.001180	-0.897160	0.488130	0.033730	-0.939540	0.287210	0.030750	-0.956280	0.082590	0.085670	-1.012560	0.100490	0.112380	-0.820750	0.048840	0.171410	-0.832630	0.694120	0.332790	-0.772520	0.521590	0.320220	-0.881510	0.383430	0.315300	-1.010850	0.197830	0.259740	-1.035320	0.241150	0.211720	-0.898910	0.087860	0.241580	-0.954630	0.098300	0.290510	-0.849300	0.033780	0.078480	-0.748130	0.517110	0.214080	-0.919750	0.486900	0.138690	
390	3.8900	-0.968860	1.504420	0.134820	-1.016590	1.259520	0.134620	-0.829060	1.398690	0.160410	-0.805160	1.245200	0.160700	-0.877670	1.461910	-0.031300	-0.785340	1.161530	-0.105140	-0.630250	0.962060	-0.047890	-0.672550	0.940070	-0.095680	-0.607900	0.889150	-0.093480	-0.926870	1.474750	0.319520	-1.011180	1.166540	0.416010	-0.971770	0.917130	0.394750	-1.017410	0.926220	0.436150	-1.000440	0.854610	0.439010	-0.835150	0.983350	0.031820	-0.862070	0.983380	0.293830	-0.996710	1.088650	0.097700	-1.005590	1.086000	0.183190	-0.879610	0.677020	0.000840	-0.893750	0.487590	0.033300	-0.937800	0.287050	0.030480	-0.956140	0.082570	0.085640	-1.012170	0.100720	0.112330	-0.820680	0.048790	0.171380	-0.818780	0.695620	0.332270	-0.755670	0.523600	0.318880	-0.858430	0.380270	0.314670	-0.980030	0.189140	0.259510	-1.007160	0.231430	0.212040	-0.862790	0.085310	0.240410	-0.918630	0.092840	0.289800	-0.849280	0.033690	0.078390	-0.732340	0.520140	0.212540	-0.916000	0.486680	0.138260	
391	3.9000	-0.959770	1.503940	0.134300	-1.007580	1.259050	0.134270	-0.820050	1.398210	0.160190	-0.796170	1.244710	0.160260	-0.868380	1.461580	-0.031510	-0.769730	1.163760	-0.105630	-0.607470	0.970280	-0.047660	-0.649060	0.946330	-0.094720	-0.582760	0.897890	-0.092840	-0.918270	1.474510	0.319070	-1.008460	1.168060	0.415560	-0.973940	0.917800	0.395070	-1.019670	0.927850	0.436100	-1.004410	0.855830	0.439100	-0.826790	0.982760	0.030870	-0.852190	0.983060	0.293020	-0.987970	1.088090	0.097720	-0.996400	1.085410	0.183250	-0.874060	0.676420	0.000560	-0.890250	0.487030	0.032930	-0.936000	0.286880	0.030260	-0.955980	0.082560	0.085640	-1.011820	0.101040	0.112270	-0.820600	0.048710	0.171390	-0.805260	0.696910	0.331740	-0.739470	0.525260	0.317490	-0.835440	0.376790	0.314000	-0.948460	0.180110	0.259330	-0.978290	0.221150	0.212330	-0.826060	0.082900	0.239400	-0.881910	0.087460	0.289190	-0.849250	0.033590	0.078310	-0.717310	0.522790	0.210930	-0.912150	0.486420	0.137910	
392	3.9100	-0.950660	1.503360	0.133850	-0.998520	1.258460	0.134010	-0.811010	1.397630	0.160010	-0.787140	1.244110	0.159860	-0.859080	1.461140	-0.031670	-0.754390	1.165980	-0.106060	-0.585310	0.978660	-0.047350	-0.626140	0.952800	-0.093770	-0.558270	0.906860	-0.092100	-0.909640	1.474180	0.318650	-1.005390	1.169500	0.415100	-0.975690	0.918530	0.395230	-1.021410	0.929500	0.435960	-1.007820	0.857120	0.439050	-0.818390	0.982070	0.030000	-0.842210	0.982560	0.292270	-0.979200	1.087420	0.097850	-0.987140	1.084710	0.183430	-0.868480	0.675780	0.000360	-0.886650	0.486430	0.032620	-0.934130	0.286700	0.030100	-0.955800	0.082570	0.085670	-1.011500	0.101430	0.112220	-0.820510	0.048610	0.171420	-0.792080	0.697950	0.331240	-0.723950	0.526540	0.316050	-0.812610	0.373080	0.313290	-0.916180	0.170900	0.259230	-0.948680	0.210450	0.212630	-0.788820	0.080780	0.238510	-0.844520	0.082280	0.288660	-0.849200	0.033490	0.078240	-0.703070	0.524990	0.209280	-0.908190	0.486110	0.137630	
393	3.9200	-0.941530	1.502660	0.133450	-0.989430	1.257760	0.133850	-0.801930	1.396940	0.159870	-0.778040	1.243430	0.159500	-0.849770	1.460610	-0.031780	-0.739320	1.168190	-0.106440	-0.563800	0.987130	-0.046960	-0.603810	0.959440	-0.092840	-0.534420	0.916010	-0.091280	-0.900960	1.473740	0.318290	-1.001920	1.170840	0.414620	-0.976960	0.919280	0.395270	-1.022610	0.931150	0.435730	-1.010650	0.858440	0.438880	-0.809920	0.981270	0.029210	-0.832160	0.981910	0.291580	-0.970400	1.086640	0.098080	-0.977810	1.083900	0.183700	-0.862830	0.675090	0.000220	-0.882950	0.485800	0.032370	-0.932190	0.286510	0.030000	-0.955610	0.082590	0.085730	-1.011210	0.101890	0.112190	-0.820420	0.048490	0.171470	-0.779270	0.698700	0.330760	-0.709160	0.527400	0.314570	-0.790020	0.369210	0.312600	-0.883190	0.161660	0.259210	-0.918300	0.199500	0.212940	-0.751160	0.079060	0.237670	-0.806520	0.077440	0.288160	-0.849160	0.033380	0.078180	-0.689620	0.526660	0.207640	-0.904130	0.485760	0.137410	
394	3.9300	-0.932360	1.501860	0.133120	-0.980280	1.256950	0.133800	-0.792810	1.396160	0.159770	-0.768880	1.242650	0.159190	-0.840450	1.459970	-0.031840	-0.724500	1.170360	-0.106760	-0.542970	0.995630	-0.046470	-0.582080	0.966210	-0.091940	-0.511260	0.925290	-0.090360	-0.892200	1.473200	0.317990	-0.998040	1.172050	0.414100	-0.977710	0.920050	0.395190	-1.023250	0.932760	0.435420	-1.012850	0.859770	0.438610	-0.801390	0.980380	0.028500	-0.822010	0.981100	0.290960	-0.961550	1.085750	0.098410	-0.968390	1.082990	0.184070	-0.857080	0.674340	0.000150	-0.879120	0.485140	0.032190	-0.930180	0.286310	0.029960	-0.955390	0.082620	0.085840	-1.010900	0.102400	0.112190	-0.820330	0.048360	0.171550	-0.766870	0.699120	0.330310	-0.695120	0.527810	0.313060	-0.767720	0.365240	0.311940	-0.849530	0.152580	0.259300	-0.887190	0.188470	0.213310	-0.713190	0.077890	0.236810	-0.768000	0.073100	0.287660	-0.849110	0.033280	0.078130	-0.676960	0.527760	0.206020	-0.899960	0.485350	0.137260	
